<svg width="122" height="122" viewBox="0 0 122 122" fill="none" xmlns="http://www.w3.org/2000/svg">
<path d="M55.2812 61C55.2812 62.5167 55.8837 63.9713 56.9562 65.0438C58.0287 66.1162 59.4832 66.7188 60.9999 66.7188C62.5167 66.7188 63.9712 66.1162 65.0437 65.0438C66.1162 63.9713 66.7187 62.5167 66.7187 61C66.7187 59.4833 66.1162 58.0287 65.0437 56.9562C63.9712 55.8838 62.5167 55.2812 60.9999 55.2812C59.4832 55.2812 58.0287 55.8838 56.9562 56.9562C55.8837 58.0287 55.2812 59.4833 55.2812 61ZM79.1093 61C79.1093 62.5167 79.7118 63.9713 80.7843 65.0438C81.8568 66.1162 83.3114 66.7188 84.8281 66.7188C86.3448 66.7188 87.7994 66.1162 88.8718 65.0438C89.9443 63.9713 90.5468 62.5167 90.5468 61C90.5468 59.4833 89.9443 58.0287 88.8718 56.9562C87.7994 55.8838 86.3448 55.2812 84.8281 55.2812C83.3114 55.2812 81.8568 55.8838 80.7843 56.9562C79.7118 58.0287 79.1093 59.4833 79.1093 61ZM31.4531 61C31.4531 62.5167 32.0556 63.9713 33.1281 65.0438C34.2005 66.1162 35.6551 66.7188 37.1718 66.7188C38.6885 66.7188 40.1431 66.1162 41.2156 65.0438C42.2881 63.9713 42.8906 62.5167 42.8906 61C42.8906 59.4833 42.2881 58.0287 41.2156 56.9562C40.1431 55.8838 38.6885 55.2812 37.1718 55.2812C35.6551 55.2812 34.2005 55.8838 33.1281 56.9562C32.0556 58.0287 31.4531 59.4833 31.4531 61ZM110.229 40.3172C107.536 33.9193 103.676 28.1768 98.7556 23.2443C93.8694 18.3406 88.069 14.4426 81.6828 11.7711C75.13 9.01895 68.1722 7.625 60.9999 7.625H60.7617C53.5417 7.66074 46.5482 9.09043 39.9716 11.9021C33.6401 14.6011 27.894 18.506 23.0537 23.3992C18.1808 28.3197 14.3564 34.0385 11.7115 40.4125C8.97123 47.0129 7.5892 54.0303 7.62494 61.2502C7.66537 69.5242 9.62283 77.6762 13.3437 85.0664V103.176C13.3437 104.629 13.9211 106.023 14.9489 107.051C15.9767 108.079 17.3707 108.656 18.8242 108.656H36.9455C44.3357 112.377 52.4877 114.335 60.7617 114.375H61.0119C68.1484 114.375 75.0705 112.993 81.5874 110.288C87.9415 107.649 93.7203 103.796 98.6007 98.9463C103.521 94.0734 107.393 88.3785 110.098 82.0283C112.91 75.4518 114.339 68.4582 114.375 61.2383C114.411 53.9826 113.005 46.9414 110.229 40.3172ZM92.2267 92.5008C83.8749 100.769 72.7949 105.32 60.9999 105.32H60.7974C53.6132 105.285 46.4767 103.497 40.1742 100.138L39.1734 99.6016H22.3984V82.8266L21.8622 81.8258C18.5025 75.5232 16.7154 68.3867 16.6796 61.2025C16.632 49.3242 21.1712 38.1727 29.4992 29.7732C37.8152 21.3738 48.931 16.7273 60.8093 16.6797H61.0119C66.9689 16.6797 72.7472 17.8354 78.1919 20.1229C83.5056 22.3508 88.2712 25.5557 92.3697 29.6541C96.4562 33.7406 99.673 38.5182 101.901 43.8318C104.212 49.3361 105.368 55.174 105.344 61.2025C105.273 73.0689 100.614 84.1848 92.2267 92.5008Z" fill="black"/>
</svg>
