<svg width="105" height="122" viewBox="0 0 105 122" fill="none" xmlns="http://www.w3.org/2000/svg">
<path d="M15 7.625C6.72656 7.625 0 14.4637 0 22.875V99.125C0 107.536 6.72656 114.375 15 114.375H90C98.2734 114.375 105 107.536 105 99.125V22.875C105 14.4637 98.2734 7.625 90 7.625H15ZM84.6328 27.6406L60.3047 55.9008L88.9219 94.3594H66.5156L48.9844 71.0316L28.8984 94.3594H17.7656L43.7812 64.1215L16.3359 27.6406H39.3047L55.1719 48.9668L73.5 27.6406H84.6328ZM75.7734 87.5922L35.9531 34.0504H29.3203L69.5859 87.5922H75.75H75.7734Z" fill="black"/>
</svg>
