<svg width="122" height="122" viewBox="0 0 122 122" fill="none" xmlns="http://www.w3.org/2000/svg">
<path d="M95.9618 50.1551C95.9618 48.9417 95.4798 47.778 94.6218 46.92C93.7638 46.062 92.6001 45.58 91.3868 45.58C90.1734 45.58 89.0097 46.062 88.1517 46.92C87.2938 47.778 86.8118 48.9417 86.8118 50.1551H95.9618ZM31.9118 50.1551C31.9118 48.9417 31.4298 47.778 30.5718 46.92C29.7138 46.062 28.5501 45.58 27.3368 45.58C26.1234 45.58 24.9597 46.062 24.1017 46.92C23.2438 47.778 22.7618 48.9417 22.7618 50.1551H31.9118ZM97.3022 62.5397C98.1651 63.3731 99.3207 63.8343 100.52 63.8238C101.72 63.8134 102.867 63.3323 103.716 62.484C104.564 61.6358 105.045 60.4883 105.055 59.2887C105.066 58.0891 104.605 56.9335 103.771 56.0706L97.3022 62.5397ZM59.3618 18.1297L62.5963 14.8952C61.7383 14.0375 60.5749 13.5557 59.3618 13.5557C58.1486 13.5557 56.9852 14.0375 56.1272 14.8952L59.3618 18.1297ZM14.9522 56.0706C14.5153 56.4927 14.1667 56.9975 13.927 57.5557C13.6872 58.1138 13.561 58.7142 13.5557 59.3216C13.5504 59.9291 13.6662 60.5316 13.8962 61.0938C14.1263 61.6561 14.466 62.1669 14.8955 62.5964C15.3251 63.026 15.8359 63.3657 16.3981 63.5958C16.9604 63.8258 17.5628 63.9416 18.1703 63.9363C18.7778 63.931 19.3781 63.8048 19.9363 63.565C20.4944 63.3252 20.9993 62.9767 21.4213 62.5397L14.9522 56.0706ZM36.4868 105.056H82.2368V95.9056H36.4868V105.056ZM95.9618 91.3305V50.1551H86.8118V91.3305H95.9618ZM31.9118 91.3305V50.1551H22.7618V91.3305H31.9118ZM103.771 56.0706L62.5963 14.8952L56.1272 21.3643L97.3022 62.5397L103.771 56.0706ZM56.1272 14.8952L14.9522 56.0706L21.4213 62.5397L62.5963 21.3643L56.1272 14.8952ZM82.2368 105.056C85.8769 105.056 89.3679 103.61 91.9418 101.036C94.5157 98.4617 95.9618 94.9706 95.9618 91.3305H86.8118C86.8118 92.5439 86.3298 93.7076 85.4718 94.5656C84.6138 95.4236 83.4501 95.9056 82.2368 95.9056V105.056ZM36.4868 95.9056C35.2734 95.9056 34.1097 95.4236 33.2517 94.5656C32.3938 93.7076 31.9118 92.5439 31.9118 91.3305H22.7618C22.7618 94.9706 24.2078 98.4617 26.7817 101.036C29.3557 103.61 32.8467 105.056 36.4868 105.056V95.9056Z" fill="black"/>
<path d="M46.8132 70.2852C46.8132 68.5526 48.2177 67.1481 49.9503 67.1481H65.636C67.3686 67.1481 68.7732 68.5526 68.7732 70.2852V98.5198H46.8132V70.2852Z" fill="black"/>
</svg>
