<svg width="122" height="122" viewBox="0 0 122 122" fill="none" xmlns="http://www.w3.org/2000/svg">
<path d="M92.3495 55.9157C92.3493 51.1323 91.4065 46.3956 89.5761 41.9763C87.7453 37.5562 85.0594 33.5379 81.6764 30.1549C78.2937 26.7724 74.278 24.0892 69.8584 22.2585C65.9912 20.6566 61.8812 19.7337 57.7093 19.5282L55.9156 19.4852C51.1321 19.4853 46.3956 20.428 41.9761 22.2585C38.1082 23.8606 34.5478 26.115 31.4521 28.9204L30.1547 30.1549C23.3227 36.9869 19.4853 46.2538 19.485 55.9157C19.485 65.5775 23.3231 74.8444 30.1547 81.6766C36.9867 88.5086 46.2537 92.3493 55.9156 92.3496C65.5779 92.3496 74.8442 88.5088 81.6764 81.6766L82.9142 80.3793C85.7188 77.284 87.9743 73.7257 89.5761 69.8585C91.4069 65.4385 92.3495 60.6998 92.3495 55.9157ZM100.822 55.9157C100.822 61.8126 99.6596 67.6538 97.403 73.1018C95.6889 77.2398 93.3667 81.0896 90.5226 84.5293L109.744 103.754L110.035 104.075C111.393 105.739 111.295 108.193 109.744 109.744C108.193 111.295 105.739 111.394 104.075 110.035L103.754 109.744L84.5259 90.5194C76.5106 97.1469 66.4036 100.822 55.9156 100.822C44.007 100.822 32.5854 96.0905 24.1646 87.67C15.7435 79.2489 11.0128 67.825 11.0128 55.9157C11.0131 44.0069 15.7438 32.5856 24.1646 24.1647L24.9556 23.3936C28.9551 19.5862 33.6253 16.5472 38.7329 14.4316C44.1805 12.1751 50.0191 11.0131 55.9156 11.0129L57.021 11.0262C62.5415 11.162 67.994 12.3159 73.1016 14.4316C78.5492 16.6882 83.5005 19.9953 87.6699 24.1647C91.8393 28.3343 95.1465 33.2853 97.403 38.733C99.6594 44.1805 100.822 50.0194 100.822 55.9157Z" fill="black"/>
</svg>
