<svg width="122" height="122" viewBox="0 0 122 122" fill="none" xmlns="http://www.w3.org/2000/svg">
<path d="M96.0012 25.5182C96.0012 24.4404 95.237 23.5402 94.2207 23.3322L93.7709 23.2879H22.807C21.5752 23.2879 20.5767 24.2864 20.5767 25.5182V96.4821L20.621 96.9319C20.8291 97.9481 21.7292 98.7124 22.807 98.7124H93.7709C95.0026 98.7124 96.0012 97.7138 96.0012 96.4821V25.5182ZM105.733 96.4821C105.733 103.089 100.378 108.445 93.7709 108.445H22.807C16.4064 108.445 11.1802 103.418 10.8603 97.0967L10.8445 96.4821V25.5182C10.8445 18.9115 16.2003 13.5557 22.807 13.5557H93.7709L94.3855 13.5715C100.707 13.8914 105.733 19.1176 105.733 25.5182V96.4821Z" fill="black"/>
<path d="M52.8959 79.1715V65.6713H37.3222C34.3447 65.6713 31.9309 63.5794 31.9309 60.9988C31.9315 58.4188 34.3451 56.3264 37.3222 56.3264H52.8959V42.8292C52.8959 40.249 55.3102 38.1573 58.2872 38.1567C61.2647 38.1567 63.6785 40.2487 63.6785 42.8292V56.3264H79.2557L79.8067 56.3507C82.5245 56.5903 84.6464 58.5803 84.647 60.9988C84.647 63.4178 82.5248 65.4072 79.8067 65.647L79.2557 65.6713H63.6785V79.1715C63.6778 81.7516 61.2643 83.844 58.2872 83.844C55.3106 83.8435 52.8965 81.7513 52.8959 79.1715Z" fill="black"/>
</svg>
