<svg width="122" height="122" viewBox="0 0 122 122" fill="none" xmlns="http://www.w3.org/2000/svg">
<path d="M87.9569 11.4375H34.0431C28.0477 11.4375 22.2979 13.8192 18.0585 18.0585C13.8192 22.2979 11.4375 28.0477 11.4375 34.0431V87.9569C11.4375 93.9523 13.8192 99.7021 18.0585 103.941C22.2979 108.181 28.0477 110.562 34.0431 110.562H87.9569C93.9523 110.562 99.7021 108.181 103.941 103.941C108.181 99.7021 110.562 93.9523 110.562 87.9569V34.0431C110.562 28.0477 108.181 22.2979 103.941 18.0585C99.7021 13.8192 93.9523 11.4375 87.9569 11.4375ZM44.9519 91.4593C44.9679 91.736 44.9271 92.0131 44.832 92.2734C44.737 92.5338 44.5898 92.7719 44.3993 92.9733C44.2089 93.1747 43.9793 93.335 43.7247 93.4444C43.4701 93.5538 43.1957 93.61 42.9186 93.6096H33.8703C33.3246 93.5963 32.8059 93.3694 32.4257 92.9778C32.0455 92.5862 31.8341 92.0611 31.8369 91.5153V53.8833C31.8294 53.6116 31.8765 53.3412 31.9753 53.088C32.0742 52.8348 32.2228 52.604 32.4123 52.4093C32.6019 52.2145 32.8286 52.0597 33.079 51.954C33.3294 51.8484 33.5985 51.794 33.8703 51.7941H42.9186C43.1904 51.794 43.4594 51.8484 43.7098 51.954C43.9603 52.0597 44.1869 52.2145 44.3765 52.4093C44.5661 52.604 44.7147 52.8348 44.8135 53.088C44.9123 53.3412 44.9594 53.6116 44.9519 53.8833V91.4593ZM38.2267 43.8793C37.247 43.872 36.2784 43.6718 35.3762 43.2901C34.4739 42.9084 33.6557 42.3528 32.9682 41.6549C32.2807 40.957 31.7373 40.1305 31.3692 39.2226C31.0011 38.3147 30.8154 37.3433 30.8228 36.3636C30.8301 35.384 31.0304 34.4154 31.412 33.5131C31.7937 32.6109 32.3494 31.7926 33.0473 31.1051C33.7452 30.4176 34.5716 29.8743 35.4795 29.5062C36.3874 29.1381 37.3589 28.9524 38.3385 28.9598C40.283 29.023 42.1257 29.8436 43.4736 31.2465C44.8215 32.6494 45.5677 34.5236 45.5532 36.469C45.5386 38.4144 44.7643 40.2771 43.3955 41.6597C42.0267 43.0422 40.1719 43.8351 38.2267 43.8692M93.2131 91.3983C93.2107 91.912 93.0091 92.4046 92.6506 92.7725C92.2922 93.1404 91.805 93.3549 91.2916 93.3707H81.74C81.2257 93.3548 80.7378 93.1397 80.3792 92.7707C80.0206 92.4017 79.8196 91.9078 79.8185 91.3932V73.9879C79.8185 71.3903 80.6115 62.6877 72.9255 62.6877C66.9323 62.6877 65.7478 68.7877 65.5191 71.5022V91.7897C65.5193 92.3051 65.3189 92.8004 64.9602 93.1705C64.6015 93.5406 64.1127 93.7564 63.5976 93.7723H54.3307C53.8058 93.7709 53.3028 93.5614 52.9321 93.1898C52.5614 92.8182 52.3532 92.3147 52.3532 91.7897V53.7003C52.3691 53.1852 52.585 52.6965 52.955 52.3378C53.3251 51.9791 53.8204 51.7786 54.3358 51.7788H63.5976C64.113 51.7786 64.6082 51.9791 64.9783 52.3378C65.3484 52.6965 65.5642 53.1852 65.5801 53.7003V56.9791C66.9324 54.9997 68.7995 53.4272 70.9799 52.431C73.1603 51.4349 75.5714 51.0529 77.9529 51.3264C93.3808 51.3264 93.3249 65.7377 93.3249 73.932L93.2131 91.3983Z" fill="black"/>
</svg>
