<svg width="122" height="122" viewBox="0 0 122 122" fill="none" xmlns="http://www.w3.org/2000/svg">
<path d="M20.3334 91.5C18.8931 91.5 17.6866 91.012 16.714 90.036C15.7414 89.06 15.2534 87.8536 15.25 86.4167C15.2466 84.9798 15.7346 83.7733 16.714 82.7973C17.6934 81.8213 18.8999 81.3333 20.3334 81.3333H101.667C103.107 81.3333 104.315 81.8213 105.291 82.7973C106.267 83.7733 106.753 84.9798 106.75 86.4167C106.747 87.8536 106.259 89.0617 105.286 90.0411C104.313 91.0205 103.107 91.5068 101.667 91.5H20.3334ZM20.3334 66.0833C18.8931 66.0833 17.6866 65.5953 16.714 64.6193C15.7414 63.6433 15.2534 62.4369 15.25 61C15.2466 59.5631 15.7346 58.3567 16.714 57.3807C17.6934 56.4047 18.8999 55.9167 20.3334 55.9167H101.667C103.107 55.9167 104.315 56.4047 105.291 57.3807C106.267 58.3567 106.753 59.5631 106.75 61C106.747 62.4369 106.259 63.645 105.286 64.6244C104.313 65.6038 103.107 66.0901 101.667 66.0833H20.3334ZM20.3334 40.6667C18.8931 40.6667 17.6866 40.1787 16.714 39.2027C15.7414 38.2267 15.2534 37.0202 15.25 35.5833C15.2466 34.1464 15.7346 32.94 16.714 31.964C17.6934 30.988 18.8999 30.5 20.3334 30.5H101.667C103.107 30.5 104.315 30.988 105.291 31.964C106.267 32.94 106.753 34.1464 106.75 35.5833C106.747 37.0202 106.259 38.2284 105.286 39.2078C104.313 40.1871 103.107 40.6734 101.667 40.6667H20.3334Z" fill="black"/>
</svg>
