<svg width="122" height="122" viewBox="0 0 122 122" fill="none" xmlns="http://www.w3.org/2000/svg">
<path d="M51.24 55.2051C51.4941 53.5276 52.0533 52.0534 52.765 50.8334C54.29 47.9867 56.8825 46.5126 60.39 46.4617C62.6775 46.4617 64.7616 47.4784 66.2358 48.9526C67.6591 50.5284 68.625 52.7142 68.625 54.9001H77.775C77.6733 52.5109 77.2158 50.3251 76.25 48.2917C75.4875 46.3601 74.3183 44.6317 72.7933 43.2084C65.4225 36.3967 51.7483 37.3626 45.4958 45.0892C38.9383 53.5784 38.7858 68.4217 45.445 76.9109C51.5958 84.4851 65.0666 85.5526 72.3866 78.7917C73.9625 77.5209 75.2333 75.9451 76.25 74.1151C77.0633 72.2851 77.6225 70.3534 77.6733 68.2692H68.625C68.625 69.3367 68.2691 70.3026 67.8116 71.1667C67.3541 72.1326 66.7441 72.8951 66.0833 73.5559C64.4058 74.8776 62.4233 75.5892 60.2883 75.5892C58.4583 75.5384 56.9333 75.1826 55.7641 74.4201C54.4441 73.6819 53.3936 72.5423 52.765 71.1667C50.2233 66.5917 50.63 60.2376 51.24 55.2051ZM61 10.1667C33.0416 10.1667 10.1666 33.0417 10.1666 61.0001C12.8608 128.456 109.292 128.405 111.833 61.0001C111.833 33.0417 88.9583 10.1667 61 10.1667ZM61 101.667C38.5825 101.667 20.3333 83.4176 20.3333 61.0001C22.57 7.06592 99.43 7.06592 101.667 61.0001C101.667 83.4176 83.4175 101.667 61 101.667Z" fill="black"/>
</svg>
