<svg width="122" height="122" viewBox="0 0 122 122" fill="none" xmlns="http://www.w3.org/2000/svg">
<path d="M51.5755 16.5108C52.3351 14.6336 53.6379 13.0259 55.317 11.894C56.9961 10.762 58.975 10.1572 61 10.1572C63.0251 10.1572 65.004 10.762 66.6831 11.894C68.3622 13.0259 69.665 14.6336 70.4245 16.5108C77.9428 18.5758 84.5748 23.053 89.3009 29.254C94.027 35.4551 96.5856 43.0367 96.5834 50.8334V74.7099L105.896 88.6789C106.407 89.4444 106.7 90.3343 106.745 91.2535C106.789 92.1727 106.584 93.0868 106.15 93.8983C105.715 94.7097 105.069 95.3881 104.28 95.861C103.49 96.3339 102.587 96.5836 101.667 96.5834H78.6138C78.0017 100.818 75.8844 104.691 72.6495 107.492C69.4147 110.293 65.279 111.835 61 111.835C56.7211 111.835 52.5854 110.293 49.3506 107.492C46.1157 104.691 43.9983 100.818 43.3863 96.5834H20.3334C19.4131 96.5836 18.51 96.3339 17.7205 95.861C16.931 95.3881 16.2847 94.7097 15.8505 93.8983C15.4163 93.0868 15.2106 92.1727 15.2553 91.2535C15.2999 90.3343 15.5933 89.4444 16.104 88.6789L25.4167 74.7099V50.8334C25.4167 34.4448 36.4984 20.6384 51.5755 16.5108ZM53.8122 96.5834C54.3372 98.0711 55.3107 99.3593 56.5985 100.27C57.8863 101.182 59.425 101.671 61.0026 101.671C62.5801 101.671 64.1189 101.182 65.4067 100.27C66.6945 99.3593 67.668 98.0711 68.193 96.5834H53.8122ZM61 25.4168C54.2591 25.4168 47.7943 28.0946 43.0277 32.8611C38.2612 37.6277 35.5834 44.0925 35.5834 50.8334V76.2501C35.5836 77.2542 35.2864 78.2359 34.7294 79.0714L29.8341 86.4168H92.1609L87.2656 79.0714C86.7104 78.2354 86.415 77.2537 86.4167 76.2501V50.8334C86.4167 44.0925 83.7389 37.6277 78.9723 32.8611C74.2058 28.0946 67.741 25.4168 61 25.4168Z" fill="black"/>
</svg>
