<svg width="122" height="122" viewBox="0 0 122 122" fill="none" xmlns="http://www.w3.org/2000/svg">
<path fill-rule="evenodd" clip-rule="evenodd" d="M101.667 15.25C104.232 15.2492 106.702 16.2179 108.583 17.9619C110.464 19.706 111.616 22.0965 111.808 24.6542L111.833 25.4167V96.5833C111.834 99.1483 110.865 101.619 109.121 103.499C107.377 105.38 104.987 106.532 102.429 106.725L101.667 106.75H20.3333C17.7684 106.751 15.2979 105.782 13.4172 104.038C11.5364 102.294 10.3844 99.9035 10.192 97.3458L10.1666 96.5833V25.4167C10.1658 22.8517 11.1345 20.3813 12.8786 18.5005C14.6226 16.6198 17.0131 15.4678 19.5708 15.2754L20.3333 15.25H101.667ZM101.667 25.4167H20.3333V96.5833H101.667V25.4167ZM52.5616 38.8265L55.1948 39.9957L56.913 40.809L58.8802 41.7748L61.0661 42.883L63.4552 44.1538L66.0325 45.5772L67.3846 46.3498L70.0178 47.9003L72.4273 49.3846L74.6131 50.7723L76.5448 52.0584L78.9848 53.7359L80.8351 55.0728L81.3181 55.4287C82.1026 56.0124 82.7397 56.7715 83.1787 57.6452C83.6176 58.519 83.8462 59.4833 83.8462 60.4612C83.8462 61.439 83.6176 62.4033 83.1787 63.2771C82.7397 64.1509 82.1026 64.9099 81.3181 65.4937L79.6761 66.6883L77.4395 68.2539L75.6298 69.4688L73.5711 70.8058L71.2683 72.2443L68.7317 73.7693L66.0172 75.3401L63.4298 76.7736L61.0356 78.0444L58.8497 79.1628L56.8876 80.1184L53.7257 81.5824L52.5565 82.0908C51.659 82.4775 50.6834 82.6492 49.7077 82.5921C48.7319 82.535 47.7831 82.2507 46.9367 81.7619C46.0904 81.273 45.37 80.5932 44.8329 79.7765C44.2959 78.9599 43.9572 78.029 43.8437 77.0583L43.5489 74.1862L43.3862 72.285L43.1727 68.9097L43.0558 66.3273L42.9795 63.5061L42.9592 62.0116L42.9491 60.4612C42.9491 59.4106 42.9592 58.3939 42.9795 57.4112L43.0558 54.5899L43.1727 52.0127L43.31 49.6896L43.4625 47.6512L43.8437 43.8692C43.9565 42.8973 44.2949 41.9653 44.8319 41.1474C45.3688 40.3296 46.0895 39.6486 46.9364 39.1587C47.7833 38.6688 48.733 38.3837 49.7097 38.326C50.6863 38.2683 51.663 38.4397 52.5616 38.8265ZM55.6676 51.5399L53.4512 50.4317L53.3038 52.9073L53.192 55.7082L53.1259 58.8091L53.1157 60.4612L53.1259 62.1133L53.192 65.209L53.2428 66.6476L53.375 69.2909L53.4512 70.4855L55.6574 69.3773L58.133 68.076L60.8526 66.5815L62.2962 65.758L65.0971 64.1008L67.6083 62.5453L69.8246 61.122L70.821 60.4612L68.7521 59.0887L66.3832 57.5942C65.0353 56.7597 63.6745 55.9462 62.3013 55.1542L60.8627 54.3358L58.1482 52.8413L55.6676 51.5399Z" fill="black"/>
</svg>
