<svg width="122" height="122" viewBox="0 0 122 122" fill="none" xmlns="http://www.w3.org/2000/svg">
<path d="M66.2257 10.1667C71.9445 10.182 74.847 10.2125 77.3531 10.2837L78.3393 10.3192C79.478 10.3599 80.6014 10.4107 81.9586 10.4717C87.3673 10.7259 91.0578 11.5799 94.2959 12.8355C97.6509 14.1267 100.477 15.8753 103.304 18.6966C105.889 21.2369 107.89 24.311 109.165 27.7042C110.42 30.9423 111.274 34.6328 111.528 40.0466C111.589 41.3987 111.64 42.5222 111.681 43.6659L111.711 44.6521C111.788 47.1531 111.818 50.0557 111.828 55.7744L111.833 59.5666V66.2257C111.846 69.9336 111.807 73.6414 111.716 77.3481L111.686 78.3343C111.645 79.478 111.594 80.6014 111.533 81.9536C111.279 87.3673 110.415 91.0527 109.165 94.2959C107.89 97.6892 105.889 100.763 103.304 103.304C100.763 105.889 97.6891 107.89 94.2959 109.165C91.0578 110.42 87.3673 111.274 81.9586 111.528L78.3393 111.681L77.3531 111.711C74.847 111.783 71.9445 111.818 66.2257 111.828L62.4335 111.833H55.7795C52.07 111.846 48.3605 111.808 44.652 111.716L43.6659 111.686C42.4591 111.64 41.2527 111.588 40.0465 111.528C34.6379 111.274 30.9474 110.42 27.7042 109.165C24.3128 107.889 21.2405 105.889 18.7016 103.304C16.1139 100.764 14.1119 97.6896 12.8355 94.2959C11.5799 91.0578 10.7259 87.3673 10.4717 81.9536L10.3192 78.3343L10.2938 77.3481C10.2001 73.6414 10.1577 69.9336 10.1667 66.2257V55.7744C10.1526 52.0666 10.1899 48.3588 10.2785 44.6521L10.3141 43.6659C10.3548 42.5222 10.4056 41.3987 10.4666 40.0466C10.7208 34.6328 11.5748 30.9474 12.8304 27.7042C14.1098 24.3096 16.1153 21.2354 18.7067 18.6966C21.2441 16.112 24.3146 14.1118 27.7042 12.8355C30.9474 11.5799 34.6328 10.7259 40.0465 10.4717C41.3987 10.4107 42.5272 10.3599 43.6659 10.3192L44.652 10.2887C48.3588 10.1984 52.0666 10.1595 55.7744 10.1718L66.2257 10.1667ZM61 35.5834C54.2591 35.5834 47.7943 38.2612 43.0277 43.0278C38.2612 47.7943 35.5834 54.2592 35.5834 61.0001C35.5834 67.741 38.2612 74.2058 43.0277 78.9724C47.7943 83.7389 54.2591 86.4167 61 86.4167C67.741 86.4167 74.2058 83.7389 78.9723 78.9724C83.7389 74.2058 86.4167 67.741 86.4167 61.0001C86.4167 54.2592 83.7389 47.7943 78.9723 43.0278C74.2058 38.2612 67.741 35.5834 61 35.5834ZM61 45.7501C63.0027 45.7497 64.9858 46.1439 66.8362 46.91C68.6865 47.676 70.3678 48.799 71.7842 50.2149C73.2005 51.6308 74.3241 53.3117 75.0908 55.1618C75.8575 57.0119 76.2523 58.9949 76.2526 60.9975C76.2529 63.0002 75.8588 64.9833 75.0927 66.8337C74.3266 68.684 73.2036 70.3653 71.7878 71.7817C70.3719 73.198 68.6909 74.3216 66.8409 75.0883C64.9908 75.855 63.0078 76.2497 61.0051 76.2501C56.9606 76.2501 53.0817 74.6434 50.2217 71.7835C47.3618 68.9235 45.7551 65.0446 45.7551 61.0001C45.7551 56.9555 47.3618 53.0766 50.2217 50.2167C53.0817 47.3568 56.9606 45.7501 61.0051 45.7501M87.6926 27.9584C86.0074 27.9584 84.3912 28.6279 83.1996 29.8195C82.0079 31.0111 81.3385 32.6274 81.3385 34.3126C81.3385 35.9978 82.0079 37.614 83.1996 38.8057C84.3912 39.9973 86.0074 40.6667 87.6926 40.6667C89.3779 40.6667 90.9941 39.9973 92.1857 38.8057C93.3773 37.614 94.0468 35.9978 94.0468 34.3126C94.0468 32.6274 93.3773 31.0111 92.1857 29.8195C90.9941 28.6279 89.3779 27.9584 87.6926 27.9584Z" fill="black"/>
</svg>
